<?xml version="1.0" encoding="UTF-8"?>
<!DOCTYPE svg PUBLIC "-//W3C//DTD SVG 1.1//EN" "http://www.w3.org/Graphics/SVG/1.1/DTD/svg11.dtd">
<!-- Creator: CorelDRAW 2018 (64-Bit) -->
<svg xmlns="http://www.w3.org/2000/svg" xml:space="preserve" width="51.7049mm" height="22.565mm" version="1.1" style="shape-rendering:geometricPrecision; text-rendering:geometricPrecision; image-rendering:optimizeQuality; fill-rule:evenodd; clip-rule:evenodd"
viewBox="0 0 5309.23 2317.05"
 xmlns:xlink="http://www.w3.org/1999/xlink">
 <defs>
  <style type="text/css">
   <![CDATA[
    .fil8 {fill:black}
    .fil10 {fill:#3DB4A0}
    .fil9 {fill:#4FCEB7}
    .fil12 {fill:#5F9EEB}
    .fil13 {fill:#627687}
    .fil14 {fill:#7FB7EA}
    .fil11 {fill:#A9D2F7}
    .fil3 {fill:#CE3F63}
    .fil6 {fill:#D88852}
    .fil4 {fill:#E39F6E}
    .fil2 {fill:#EB5777}
    .fil7 {fill:#F8C298}
    .fil5 {fill:#393C44}
    .fil15 {fill:#292C33}
    .fil0 {fill:#FEFEFE;fill-rule:nonzero}
    .fil1 {fill:#FFCCCC;fill-rule:nonzero}
   ]]>
  </style>
 </defs>
 <g id="Layer_x0020_1">
  <metadata id="CorelCorpID_0Corel-Layer"/>
  <polygon class="fil0" points="2431.59,413.82 2431.59,5.22 2699.36,5.22 2699.36,64.92 2505.19,64.92 2505.19,176.19 2687.76,176.19 2687.76,235.89 2505.19,235.89 2505.19,413.82 "/>
  <path id="1" class="fil0" d="M2935.83 419.04c-39.8,0 -74.28,-8.5 -103.45,-25.51 -29.17,-16.99 -51.68,-41.34 -67.52,-73.02 -15.84,-31.69 -23.76,-68.79 -23.76,-111.29 0,-42.5 7.82,-79.5 23.47,-110.99 15.65,-31.49 38.16,-55.74 67.52,-72.73 29.37,-17 63.94,-25.51 103.74,-25.51 39.8,0 74.28,8.5 103.45,25.51 29.17,16.99 51.59,41.24 67.24,72.73 15.65,31.49 23.47,68.49 23.47,110.99 0,42.5 -7.93,79.6 -23.76,111.29 -15.84,31.68 -38.35,56.02 -67.52,73.02 -29.17,17 -63.47,25.51 -102.88,25.51zm0 -59.7c37.48,0 66.75,-12.94 87.8,-38.82 21.06,-25.9 31.6,-62.99 31.6,-111.29 0,-48.29 -10.54,-85.29 -31.6,-110.99 -21.05,-25.69 -50.33,-38.54 -87.8,-38.54 -37.87,0 -67.33,12.85 -88.39,38.54 -21.05,25.7 -31.59,62.7 -31.59,110.99 0,48.3 10.54,85.39 31.59,111.29 21.06,25.89 50.52,38.82 88.39,38.82z"/>
  <path id="2" class="fil0" d="M3547.87 413.82l-81.14 0 -70.13 -130.41c-6.56,-12.36 -14.68,-21.06 -24.34,-26.08 -9.66,-5.02 -21.83,-7.54 -36.51,-7.54l-56.8 0 0 164.03 -73.6 0 0 -408.61 180.83 0c46.37,0 81.62,10.34 105.77,31.01 24.15,20.67 36.23,50.52 36.23,89.54 0,31.3 -8.79,57.09 -26.37,77.38 -17.58,20.28 -42.41,33.52 -74.48,39.7 21.64,5.79 39.02,21.06 52.16,45.79l68.39 125.19zm-172.14 -221.41c28.21,0 48.88,-5.31 62.02,-15.94 13.13,-10.63 19.7,-26.94 19.7,-48.97 0,-22.42 -6.57,-38.74 -19.7,-48.98 -13.14,-10.24 -33.81,-15.36 -62.02,-15.36l-97.36 0 0 129.25 97.36 0z"/>
  <polygon id="3" class="fil0" points="3948.36,5.22 4006.9,5.22 4006.9,413.82 3940.84,413.82 3940.84,143.74 3833.03,347.75 3783.19,347.75 3674.81,146.63 3675.38,413.82 3609.31,413.82 3609.31,5.22 3668.43,5.22 3808.68,272.41 "/>
  <path id="4" class="fil0" d="M4391.17 419.04c-31.3,0 -60.67,-4.25 -88.1,-12.75 -27.43,-8.5 -50.61,-20.48 -69.55,-35.93l24.92 -54.48c19.7,15.07 40.48,26.08 62.31,33.03 21.83,6.96 45.5,10.43 71,10.43 28.21,0 49.95,-4.93 65.2,-14.78 15.27,-9.86 22.9,-23.67 22.9,-41.44 0,-15.45 -7.05,-27.24 -21.15,-35.35 -14.11,-8.11 -37.58,-15.84 -70.42,-23.19 -34.01,-7.34 -61.63,-15.83 -82.89,-25.5 -21.25,-9.66 -37.28,-22.03 -48.11,-37.1 -10.81,-15.06 -16.22,-34.19 -16.22,-57.38 0,-23.96 6.57,-45.4 19.7,-64.33 13.13,-18.93 31.69,-33.71 55.64,-44.34 23.96,-10.63 51.58,-15.94 82.88,-15.94 28.6,0 55.84,4.34 81.73,13.04 25.89,8.7 47.13,20.58 63.76,35.64l-24.93 54.48c-36.32,-28.98 -76.5,-43.47 -120.55,-43.47 -26.28,0 -47.04,5.31 -62.31,15.94 -15.26,10.63 -22.89,25.4 -22.89,44.34 0,15.84 6.76,28.01 20.28,36.51 13.52,8.5 36.51,16.42 68.97,23.76 34.39,7.73 62.31,16.33 83.75,25.79 21.45,9.47 37.87,21.54 49.27,36.23 11.4,14.67 17.1,33.23 17.1,55.63 0,24.35 -6.47,45.69 -19.42,64.04 -12.94,18.36 -31.68,32.46 -56.22,42.32 -24.53,9.85 -53.42,14.78 -86.64,14.78z"/>
  <polygon id="5" class="fil0" points="4977.7,413.82 4886.7,413.82 4697.18,223.72 4697.18,413.82 4622.42,413.82 4622.42,5.22 4697.18,5.22 4697.18,187.79 4879.17,5.22 4968.43,5.22 4770.79,201.69 "/>
  <polygon id="6" class="fil0" points="5101.15,413.82 5101.15,66.65 4967.84,66.65 4967.84,5.22 5309.23,5.22 5309.23,66.65 5175.92,66.65 5175.92,413.82 "/>
  <path id="7" class="fil0" d="M2613.58 1038.45c-39.8,0 -74.28,-8.5 -103.45,-25.51 -29.17,-16.99 -51.68,-41.34 -67.52,-73.02 -15.84,-31.69 -23.76,-68.79 -23.76,-111.29 0,-42.5 7.82,-79.5 23.47,-110.99 15.65,-31.49 38.16,-55.74 67.52,-72.73 29.37,-17 63.94,-25.51 103.74,-25.51 39.8,0 74.28,8.5 103.45,25.51 29.17,16.99 51.59,41.24 67.24,72.73 15.65,31.49 23.47,68.49 23.47,110.99 0,42.5 -7.93,79.6 -23.76,111.29 -15.84,31.68 -38.35,56.02 -67.52,73.02 -29.17,17 -63.47,25.51 -102.88,25.51zm0 -59.7c37.48,0 66.75,-12.94 87.8,-38.82 21.06,-25.9 31.6,-62.99 31.6,-111.29 0,-48.29 -10.54,-85.29 -31.6,-110.99 -21.05,-25.69 -50.33,-38.54 -87.8,-38.54 -37.87,0 -67.33,12.85 -88.39,38.54 -21.05,25.7 -31.59,62.7 -31.59,110.99 0,48.3 10.54,85.39 31.59,111.29 21.06,25.89 50.52,38.82 88.39,38.82z"/>
  <path id="8" class="fil0" d="M3225.62 1033.23l-81.14 0 -70.13 -130.41c-6.56,-12.36 -14.68,-21.06 -24.34,-26.08 -9.66,-5.02 -21.83,-7.54 -36.51,-7.54l-56.8 0 0 164.03 -73.6 0 0 -408.61 180.83 0c46.37,0 81.62,10.34 105.77,31.01 24.15,20.67 36.23,50.52 36.23,89.54 0,31.3 -8.79,57.09 -26.37,77.38 -17.58,20.28 -42.41,33.52 -74.48,39.7 21.64,5.79 39.02,21.06 52.16,45.79l68.39 125.19zm-172.14 -221.41c28.21,0 48.88,-5.31 62.02,-15.94 13.13,-10.63 19.7,-26.94 19.7,-48.97 0,-22.42 -6.57,-38.74 -19.7,-48.98 -13.14,-10.24 -33.81,-15.36 -62.02,-15.36l-97.36 0 0 129.25 97.36 0z"/>
  <polygon id="9" class="fil0" points="3626.11,624.62 3684.65,624.62 3684.65,1033.23 3618.59,1033.23 3618.59,763.14 3510.78,967.15 3460.94,967.15 3352.56,766.04 3353.13,1033.23 3287.06,1033.23 3287.06,624.62 3346.18,624.62 3486.43,891.81 "/>
  <path id="10" class="fil0" d="M4085.72 1033.23l-41.15 -95.63 -198.8 0 -41.15 95.63 -75.35 0 184.89 -408.61 60.85 0 184.89 408.61 -74.19 0zm-215.6 -153.59l149.53 0 -74.76 -173.87 -74.76 173.87z"/>
  <path id="11" class="fil0" d="M4337.27 1038.45c-31.3,0 -60.67,-4.25 -88.1,-12.75 -27.43,-8.5 -50.61,-20.48 -69.55,-35.93l24.92 -54.48c19.7,15.07 40.48,26.08 62.31,33.03 21.83,6.96 45.5,10.43 71,10.43 28.21,0 49.95,-4.93 65.2,-14.78 15.27,-9.86 22.9,-23.67 22.9,-41.44 0,-15.45 -7.05,-27.24 -21.15,-35.35 -14.11,-8.11 -37.58,-15.84 -70.42,-23.19 -34.01,-7.34 -61.63,-15.83 -82.89,-25.5 -21.25,-9.66 -37.28,-22.03 -48.11,-37.1 -10.81,-15.06 -16.22,-34.19 -16.22,-57.38 0,-23.96 6.57,-45.4 19.7,-64.33 13.13,-18.93 31.69,-33.71 55.64,-44.34 23.96,-10.63 51.58,-15.94 82.88,-15.94 28.6,0 55.84,4.34 81.73,13.04 25.89,8.7 47.13,20.58 63.76,35.64l-24.93 54.48c-36.32,-28.98 -76.5,-43.47 -120.55,-43.47 -26.28,0 -47.04,5.31 -62.31,15.94 -15.26,10.63 -22.89,25.4 -22.89,44.34 0,15.84 6.76,28.01 20.28,36.51 13.52,8.5 36.51,16.42 68.97,23.76 34.39,7.73 62.31,16.33 83.75,25.79 21.45,9.47 37.87,21.54 49.27,36.23 11.4,14.67 17.1,33.23 17.1,55.63 0,24.35 -6.47,45.69 -19.42,64.04 -12.94,18.36 -31.68,32.46 -56.22,42.32 -24.53,9.85 -53.42,14.78 -86.64,14.78z"/>
  <path class="fil1" d="M2533.01 1402.94c0,18.01 -6.47,32.21 -19.51,42.6 -13.04,10.38 -31.15,15.55 -54.33,15.55 -24.54,0 -43.52,-3.23 -56.9,-9.75l0 -24.92c8.74,3.77 18.35,6.77 28.78,8.93 10.43,2.18 20.19,3.23 29.22,3.23 15.51,0 27.14,-2.95 34.96,-8.88 7.82,-5.99 11.74,-14.15 11.74,-24.49 0,-6.91 -1.4,-12.56 -4.25,-17 -2.8,-4.44 -7.54,-8.59 -14.2,-12.46 -6.66,-3.86 -16.71,-8.26 -30.23,-13.14 -19.13,-7 -32.85,-15.21 -41.05,-24.73 -8.21,-9.47 -12.32,-21.73 -12.32,-36.71 0,-16.13 6.09,-28.98 18.22,-38.49 12.12,-9.52 28.1,-14.3 47.91,-14.3 20.67,0 39.65,3.87 57.04,11.59l-8.07 22.36c-17.72,-7.34 -34.24,-11.01 -49.55,-11.01 -12.27,0 -21.88,2.61 -28.78,7.92 -6.96,5.27 -10.43,12.65 -10.43,22.22 0,6.76 1.36,12.4 4.06,16.9 2.7,4.49 7,8.54 13.04,12.22 5.99,3.72 15.36,7.92 28.21,12.61 15.4,5.65 26.85,11.15 34.39,16.51 7.58,5.32 13.13,11.45 16.71,18.36 3.57,6.95 5.36,15.21 5.36,24.87z"/>
  <path id="1" class="fil1" d="M2595.27 1302.87l0 100.08c0,12.56 2.8,21.83 8.41,27.92 5.6,6.08 14.29,9.13 26.08,9.13 15.94,0 27.53,-4.39 34.82,-13.29 7.25,-8.88 10.86,-23.19 10.86,-42.89l0 -80.95 25.6 0 0 155.33 -20.91 0 -3.68 -20.43 -1.3 0c-4.59,7.44 -11.15,13.18 -19.65,17.25 -8.45,4.06 -18.36,6.08 -29.56,6.08 -18.64,0 -32.75,-4.49 -42.21,-13.42 -9.47,-8.98 -14.24,-23.33 -14.24,-43.03l0 -101.77 25.78 0z"/>
  <path id="2" class="fil1" d="M2822.76 1299.97c6.9,0 12.99,0.58 18.26,1.68l-3.09 23.52c-5.75,-1.36 -11.4,-2.02 -16.86,-2.02 -8.21,0 -15.79,2.27 -22.85,6.81 -7,4.54 -12.51,10.77 -16.47,18.74 -3.95,7.97 -5.94,16.85 -5.94,26.56l0 82.93 -25.46 0 0 -155.33 20.92 0 2.84 28.4 1.11 0c5.95,-10.29 13,-18.06 21.11,-23.38 8.11,-5.27 16.9,-7.92 26.42,-7.92z"/>
  <path id="3" class="fil1" d="M2963.16 1458.19l-4.97 -22.08 -1.11 0c-7.73,9.77 -15.45,16.33 -23.13,19.81 -7.68,3.43 -17.39,5.16 -29.08,5.16 -15.26,0 -27.24,-4 -35.94,-12.02 -8.69,-8.02 -13.03,-19.31 -13.03,-33.96 0,-31.48 24.87,-48 74.57,-49.5l26.32 -1.02 0 -9.22c0,-11.84 -2.56,-20.53 -7.63,-26.17 -5.07,-5.61 -13.24,-8.41 -24.48,-8.41 -8.21,0 -15.95,1.21 -23.29,3.68 -7.29,2.45 -14.15,5.16 -20.57,8.2l-7.78 -19.12c7.82,-4.16 16.38,-7.39 25.6,-9.77 9.27,-2.36 18.4,-3.52 27.44,-3.52 18.79,0 32.75,4.16 41.93,12.47 9.13,8.31 13.72,21.49 13.72,39.6l0 105.87 -18.55 0zm-52.5 -17.63c14.25,0 25.46,-3.81 33.62,-11.54 8.16,-7.68 12.22,-18.6 12.22,-32.75l0 -14.01 -22.89 1.02c-17.83,0.63 -30.87,3.47 -38.98,8.45 -8.16,5.02 -12.27,12.9 -12.27,23.67 0,8.11 2.46,14.34 7.43,18.64 4.93,4.34 11.93,6.52 20.87,6.52z"/>
  <path id="4" class="fil1" d="M3081.79 1440.28c3.29,0 7.15,-0.34 11.59,-0.97 4.45,-0.68 7.77,-1.41 10.04,-2.27l0 19.51c-2.36,1.07 -5.99,2.07 -10.96,3.04 -4.98,1.02 -10,1.5 -15.07,1.5 -30.38,0 -45.59,-15.99 -45.59,-47.96l0 -90.45 -21.93 0 0 -12.18 22.22 -10.19 10.19 -33.08 15.13 0 0 35.64 44.91 0 0 19.81 -44.91 0 0 89.73c0,8.98 2.17,15.84 6.47,20.67 4.3,4.79 10.24,7.2 17.92,7.2z"/>
  <polygon id="5" class="fil1" points="3364.43,1458.19 3333.71,1458.19 3260.29,1359.42 3239.24,1377.97 3239.24,1458.19 3213.2,1458.19 3213.2,1251.28 3239.24,1251.28 3239.24,1353.33 3257.06,1333.63 3330.77,1251.28 3361.19,1251.28 3279.28,1341.45 "/>
  <path id="6" class="fil1" d="M3455.18 1461.09c-23.28,0 -41.58,-7.05 -54.81,-21.15 -13.29,-14.1 -19.9,-33.57 -19.9,-58.29 0,-24.92 6.18,-44.73 18.54,-59.5 12.36,-14.79 29.03,-22.17 50.09,-22.17 19.51,0 35.11,6.27 46.7,18.88 11.59,12.61 17.39,29.65 17.39,51.15l0 15.41 -106.41 0c0.48,17.67 4.98,31.1 13.43,40.27 8.5,9.18 20.53,13.77 36.08,13.77 8.31,0 16.17,-0.73 23.66,-2.22 7.44,-1.46 16.18,-4.3 26.18,-8.55l0 22.36c-8.59,3.67 -16.67,6.27 -24.2,7.77 -7.58,1.5 -16.47,2.27 -26.76,2.27zm-6.37 -140.31c-12.18,0 -21.79,3.91 -28.88,11.74 -7.05,7.82 -11.25,18.69 -12.56,32.65l79.11 0c-0.18,-14.54 -3.57,-25.56 -10.04,-33.08 -6.52,-7.54 -15.74,-11.31 -27.62,-11.31z"/>
  <path id="7" class="fil1" d="M3604.52 1440.28c3.29,0 7.15,-0.34 11.59,-0.97 4.45,-0.68 7.77,-1.41 10.04,-2.27l0 19.51c-2.36,1.07 -5.99,2.07 -10.96,3.04 -4.98,1.02 -10,1.5 -15.07,1.5 -30.38,0 -45.59,-15.99 -45.59,-47.96l0 -90.45 -21.93 0 0 -12.18 22.22 -10.19 10.19 -33.08 15.13 0 0 35.64 44.91 0 0 19.81 -44.91 0 0 89.73c0,8.98 2.17,15.84 6.47,20.67 4.3,4.79 10.24,7.2 17.92,7.2z"/>
  <path id="8" class="fil1" d="M3723.18 1461.09c-23.28,0 -41.58,-7.05 -54.81,-21.15 -13.29,-14.1 -19.9,-33.57 -19.9,-58.29 0,-24.92 6.18,-44.73 18.54,-59.5 12.36,-14.79 29.03,-22.17 50.09,-22.17 19.51,0 35.11,6.27 46.7,18.88 11.59,12.61 17.39,29.65 17.39,51.15l0 15.41 -106.41 0c0.48,17.67 4.98,31.1 13.43,40.27 8.5,9.18 20.53,13.77 36.08,13.77 8.31,0 16.17,-0.73 23.66,-2.22 7.44,-1.46 16.18,-4.3 26.18,-8.55l0 22.36c-8.59,3.67 -16.67,6.27 -24.2,7.77 -7.58,1.5 -16.47,2.27 -26.76,2.27zm-6.37 -140.31c-12.18,0 -21.79,3.91 -28.88,11.74 -7.05,7.82 -11.25,18.69 -12.56,32.65l79.11 0c-0.18,-14.54 -3.57,-25.56 -10.04,-33.08 -6.52,-7.54 -15.74,-11.31 -27.62,-11.31z"/>
  <path id="9" class="fil1" d="M3892.96 1299.97c6.9,0 12.99,0.58 18.26,1.68l-3.09 23.52c-5.75,-1.36 -11.4,-2.02 -16.86,-2.02 -8.21,0 -15.79,2.27 -22.85,6.81 -7,4.54 -12.51,10.77 -16.47,18.74 -3.95,7.97 -5.94,16.85 -5.94,26.56l0 82.93 -25.46 0 0 -155.33 20.92 0 2.84 28.4 1.11 0c5.95,-10.29 13,-18.06 21.11,-23.38 8.11,-5.27 16.9,-7.92 26.42,-7.92z"/>
  <path id="10" class="fil1" d="M4033.36 1458.19l-4.97 -22.08 -1.11 0c-7.73,9.77 -15.45,16.33 -23.13,19.81 -7.68,3.43 -17.39,5.16 -29.08,5.16 -15.26,0 -27.24,-4 -35.94,-12.02 -8.69,-8.02 -13.03,-19.31 -13.03,-33.96 0,-31.48 24.87,-48 74.57,-49.5l26.32 -1.02 0 -9.22c0,-11.84 -2.56,-20.53 -7.63,-26.17 -5.07,-5.61 -13.24,-8.41 -24.48,-8.41 -8.21,0 -15.95,1.21 -23.29,3.68 -7.29,2.45 -14.15,5.16 -20.57,8.2l-7.78 -19.12c7.82,-4.16 16.38,-7.39 25.6,-9.77 9.27,-2.36 18.4,-3.52 27.44,-3.52 18.79,0 32.75,4.16 41.93,12.47 9.13,8.31 13.72,21.49 13.72,39.6l0 105.87 -18.55 0zm-52.5 -17.63c14.25,0 25.46,-3.81 33.62,-11.54 8.16,-7.68 12.22,-18.6 12.22,-32.75l0 -14.01 -22.89 1.02c-17.83,0.63 -30.87,3.47 -38.98,8.45 -8.16,5.02 -12.27,12.9 -12.27,23.67 0,8.11 2.46,14.34 7.43,18.64 4.93,4.34 11.93,6.52 20.87,6.52z"/>
  <path id="11" class="fil1" d="M4205.79 1458.19l0 -99.35c0,-12.66 -2.8,-22.08 -8.41,-28.26 -5.6,-6.18 -14.39,-9.27 -26.37,-9.27 -15.94,0 -27.53,4.45 -34.73,13.24 -7.2,8.83 -10.81,23.18 -10.81,43.13l0 80.51 -25.46 0 0 -155.33 20.48 0 3.87 21.15 1.4 0c4.79,-7.63 11.54,-13.57 20.24,-17.77 8.65,-4.2 18.21,-6.27 28.69,-6.27 19.08,0 33.23,4.63 42.45,13.86 9.23,9.27 13.86,23.62 13.86,43.18l0 101.18 -25.21 0z"/>
  <path id="12" class="fil1" d="M4338.27 1440.28c15.65,0 27.05,-4.2 34.15,-12.65 7.1,-8.46 10.67,-22.03 10.67,-40.72l0 -6.08c0,-20.77 -3.57,-35.89 -10.72,-45.3 -7.2,-9.47 -18.74,-14.2 -34.68,-14.2 -13,0 -23.09,5.16 -30.19,15.51 -7.11,10.33 -10.68,25.12 -10.68,44.29 0,19.22 3.48,33.91 10.39,44.05 6.95,10.09 17.29,15.11 31.05,15.11zm44.53 16.52l0.87 -19.08 -1.16 0c-10.43,15.6 -26.47,23.37 -48.06,23.37 -20.1,0 -35.8,-7 -47.05,-21.01 -11.25,-14.06 -16.9,-33.76 -16.9,-59.26 0,-25.02 5.7,-44.78 17.05,-59.22 11.36,-14.44 26.9,-21.64 46.61,-21.64 21.01,0 37.24,7.82 48.64,23.51l1.54 0 3.43 -20.62 20.24 0 0 157.84c0,22.26 -5.65,38.97 -16.9,50.22 -11.31,11.21 -28.78,16.81 -52.55,16.81 -22.65,0 -41.25,-3.29 -55.88,-9.9l0 -23.47c15.07,8.11 34.19,12.13 57.29,12.17 13.18,-0.04 23.62,-3.86 31.34,-11.59 7.68,-7.72 11.5,-18.4 11.5,-32.07l0 -6.08z"/>
  <path id="13" class="fil1" d="M4553.34 1458.19l-4.97 -22.08 -1.11 0c-7.73,9.77 -15.45,16.33 -23.13,19.81 -7.68,3.43 -17.39,5.16 -29.08,5.16 -15.26,0 -27.24,-4 -35.94,-12.02 -8.69,-8.02 -13.03,-19.31 -13.03,-33.96 0,-31.48 24.87,-48 74.57,-49.5l26.32 -1.02 0 -9.22c0,-11.84 -2.56,-20.53 -7.63,-26.17 -5.07,-5.61 -13.24,-8.41 -24.48,-8.41 -8.21,0 -15.95,1.21 -23.29,3.68 -7.29,2.45 -14.15,5.16 -20.57,8.2l-7.78 -19.12c7.82,-4.16 16.38,-7.39 25.6,-9.77 9.27,-2.36 18.4,-3.52 27.44,-3.52 18.79,0 32.75,4.16 41.93,12.47 9.13,8.31 13.72,21.49 13.72,39.6l0 105.87 -18.55 0zm-52.5 -17.63c14.25,0 25.46,-3.81 33.62,-11.54 8.16,-7.68 12.22,-18.6 12.22,-32.75l0 -14.01 -22.89 1.02c-17.83,0.63 -30.87,3.47 -38.98,8.45 -8.16,5.02 -12.27,12.9 -12.27,23.67 0,8.11 2.46,14.34 7.43,18.64 4.93,4.34 11.93,6.52 20.87,6.52z"/>
  <path id="14" class="fil1" d="M4725.78 1458.19l0 -99.35c0,-12.66 -2.8,-22.08 -8.41,-28.26 -5.6,-6.18 -14.39,-9.27 -26.37,-9.27 -15.94,0 -27.53,4.45 -34.73,13.24 -7.2,8.83 -10.81,23.18 -10.81,43.13l0 80.51 -25.46 0 0 -155.33 20.48 0 3.87 21.15 1.4 0c4.79,-7.63 11.54,-13.57 20.24,-17.77 8.65,-4.2 18.21,-6.27 28.69,-6.27 19.08,0 33.23,4.63 42.45,13.86 9.23,9.27 13.86,23.62 13.86,43.18l0 101.18 -25.21 0z"/>
  <polygon id="15" class="fil1" points="2481.19,1852.85 2455.01,1852.85 2455.01,1668.88 2390.39,1668.88 2390.39,1645.93 2545.42,1645.93 2545.42,1668.88 2481.19,1668.88 "/>
  <path id="16" class="fil1" d="M2629.51 1855.74c-23.28,0 -41.58,-7.05 -54.81,-21.15 -13.29,-14.1 -19.9,-33.57 -19.9,-58.29 0,-24.92 6.18,-44.73 18.54,-59.5 12.36,-14.79 29.03,-22.17 50.09,-22.17 19.51,0 35.11,6.27 46.7,18.88 11.59,12.61 17.39,29.65 17.39,51.15l0 15.41 -106.41 0c0.48,17.67 4.98,31.1 13.43,40.27 8.5,9.18 20.53,13.77 36.08,13.77 8.31,0 16.17,-0.73 23.66,-2.22 7.44,-1.46 16.18,-4.3 26.18,-8.55l0 22.36c-8.59,3.67 -16.67,6.27 -24.2,7.77 -7.58,1.5 -16.47,2.27 -26.76,2.27zm-6.37 -140.31c-12.18,0 -21.79,3.91 -28.88,11.74 -7.05,7.82 -11.25,18.69 -12.56,32.65l79.11 0c-0.18,-14.54 -3.57,-25.56 -10.04,-33.08 -6.52,-7.54 -15.74,-11.31 -27.62,-11.31z"/>
  <path id="17" class="fil1" d="M2799.29 1694.62c6.9,0 12.99,0.58 18.26,1.68l-3.09 23.52c-5.75,-1.36 -11.4,-2.02 -16.86,-2.02 -8.21,0 -15.79,2.27 -22.85,6.81 -7,4.54 -12.51,10.77 -16.47,18.74 -3.95,7.97 -5.94,16.85 -5.94,26.56l0 82.93 -25.46 0 0 -155.33 20.92 0 2.84 28.4 1.11 0c5.95,-10.29 13,-18.06 21.11,-23.38 8.11,-5.27 16.9,-7.92 26.42,-7.92z"/>
  <path id="18" class="fil1" d="M2898.78 1855.74c-20.19,0 -35.84,-7 -46.95,-20.96 -11.15,-13.96 -16.71,-33.76 -16.71,-59.31 0,-25.4 5.61,-45.21 16.76,-59.45 11.16,-14.25 26.9,-21.4 47.19,-21.4 20.81,0 36.84,7.63 48.06,22.94l1.83 0c-0.24,-1.88 -0.63,-5.7 -1.11,-11.4 -0.48,-5.7 -0.72,-9.56 -0.72,-11.54l0 -62.02 25.5 0 0 220.25 -20.53 0 -3.81 -20.77 -1.16 0c-10.82,15.8 -26.95,23.67 -48.35,23.67zm4.11 -21.1c15.45,0 26.76,-4.21 33.85,-12.66 7.16,-8.45 10.68,-22.31 10.68,-41.59l0 -4.63c0,-21.64 -3.57,-37.05 -10.82,-46.27 -7.2,-9.18 -18.54,-13.81 -34,-13.81 -13.09,0 -23.24,5.22 -30.43,15.65 -7.16,10.43 -10.73,25.35 -10.73,44.72 0,19.22 3.57,33.81 10.68,43.76 7.1,9.9 17.38,14.83 30.76,14.83z"/>
  <path id="19" class="fil1" d="M3117.96 1852.85l-4.97 -22.08 -1.11 0c-7.73,9.77 -15.45,16.33 -23.13,19.81 -7.68,3.43 -17.39,5.16 -29.08,5.16 -15.26,0 -27.24,-4 -35.94,-12.02 -8.69,-8.02 -13.03,-19.31 -13.03,-33.96 0,-31.48 24.87,-48 74.57,-49.5l26.32 -1.02 0 -9.22c0,-11.84 -2.56,-20.53 -7.63,-26.17 -5.07,-5.61 -13.24,-8.41 -24.48,-8.41 -8.21,0 -15.95,1.21 -23.29,3.68 -7.29,2.45 -14.15,5.16 -20.57,8.2l-7.78 -19.12c7.82,-4.16 16.38,-7.39 25.6,-9.77 9.27,-2.36 18.4,-3.52 27.44,-3.52 18.79,0 32.75,4.16 41.93,12.47 9.13,8.31 13.72,21.49 13.72,39.6l0 105.87 -18.55 0zm-52.5 -17.63c14.25,0 25.46,-3.81 33.62,-11.54 8.16,-7.68 12.22,-18.6 12.22,-32.75l0 -14.01 -22.89 1.02c-17.83,0.63 -30.87,3.47 -38.98,8.45 -8.16,5.02 -12.27,12.9 -12.27,23.67 0,8.11 2.46,14.34 7.43,18.64 4.93,4.34 11.93,6.52 20.87,6.52z"/>
  <path id="20" class="fil1" d="M3256.15 1717.33l-39.17 0 0 135.52 -25.46 0 0 -135.52 -27.14 0 0 -11.89 27.14 -8.79 0 -8.93c0,-18.83 4.11,-32.98 12.37,-42.41 8.26,-9.42 20.96,-14.15 38.11,-14.15 9.9,0 19.94,1.75 30.14,5.22l-6.81 19.99c-8.75,-2.84 -16.43,-4.24 -23.04,-4.24 -8.55,0 -14.92,2.79 -19.08,8.45 -4.15,5.65 -6.23,14.63 -6.23,26.9l0 10.04 39.17 0 0 19.81z"/>
  <path id="21" class="fil1" d="M3336.32 1834.93c3.29,0 7.15,-0.34 11.59,-0.97 4.45,-0.68 7.77,-1.41 10.04,-2.27l0 19.51c-2.36,1.07 -5.99,2.07 -10.96,3.04 -4.98,1.02 -10,1.5 -15.07,1.5 -30.38,0 -45.59,-15.99 -45.59,-47.96l0 -90.45 -21.93 0 0 -12.18 22.22 -10.19 10.19 -33.08 15.13 0 0 35.64 44.91 0 0 19.81 -44.91 0 0 89.73c0,8.98 2.17,15.84 6.47,20.67 4.3,4.79 10.24,7.2 17.92,7.2z"/>
  <path id="22" class="fil1" d="M3484.83 1852.85l-4.97 -22.08 -1.11 0c-7.73,9.77 -15.45,16.33 -23.13,19.81 -7.68,3.43 -17.39,5.16 -29.08,5.16 -15.26,0 -27.24,-4 -35.94,-12.02 -8.69,-8.02 -13.03,-19.31 -13.03,-33.96 0,-31.48 24.87,-48 74.57,-49.5l26.32 -1.02 0 -9.22c0,-11.84 -2.56,-20.53 -7.63,-26.17 -5.07,-5.61 -13.24,-8.41 -24.48,-8.41 -8.21,0 -15.95,1.21 -23.29,3.68 -7.29,2.45 -14.15,5.16 -20.57,8.2l-7.78 -19.12c7.82,-4.16 16.38,-7.39 25.6,-9.77 9.27,-2.36 18.4,-3.52 27.44,-3.52 18.79,0 32.75,4.16 41.93,12.47 9.13,8.31 13.72,21.49 13.72,39.6l0 105.87 -18.55 0zm-52.5 -17.63c14.25,0 25.46,-3.81 33.62,-11.54 8.16,-7.68 12.22,-18.6 12.22,-32.75l0 -14.01 -22.89 1.02c-17.83,0.63 -30.87,3.47 -38.98,8.45 -8.16,5.02 -12.27,12.9 -12.27,23.67 0,8.11 2.46,14.34 7.43,18.64 4.93,4.34 11.93,6.52 20.87,6.52z"/>
  <path id="23" class="fil1" d="M3623.9 1694.62c6.9,0 12.99,0.58 18.26,1.68l-3.09 23.52c-5.75,-1.36 -11.4,-2.02 -16.86,-2.02 -8.21,0 -15.79,2.27 -22.85,6.81 -7,4.54 -12.51,10.77 -16.47,18.74 -3.95,7.97 -5.94,16.85 -5.94,26.56l0 82.93 -25.46 0 0 -155.33 20.92 0 2.84 28.4 1.11 0c5.95,-10.29 13,-18.06 21.11,-23.38 8.11,-5.27 16.9,-7.92 26.42,-7.92z"/>
  <path id="24" class="fil1" d="M3930.63 1749.15c0,33.14 -8.35,59.17 -25.12,78.15 -16.76,18.98 -40.13,28.44 -70.27,28.44 -30.49,0 -54.05,-9.32 -70.67,-27.96 -16.67,-18.65 -25.01,-44.92 -25.01,-78.87 0,-33.71 8.31,-59.79 24.87,-78.35 16.52,-18.54 40.23,-27.82 71.1,-27.82 29.99,0 53.36,9.42 70.08,28.26 16.71,18.78 25.01,44.86 25.01,78.14zm-163.58 0c0,27.39 5.79,48.25 17.38,62.6 11.59,14.34 28.55,21.49 50.82,21.49 22.16,0 39.02,-7.04 50.56,-21.2 11.5,-14.15 17.24,-35.11 17.24,-62.88 0,-27.62 -5.7,-48.45 -17.1,-62.45 -11.44,-14.01 -28.25,-21.01 -50.42,-21.01 -22.46,0 -39.51,7.11 -51.11,21.31 -11.59,14.19 -17.38,34.91 -17.38,62.15z"/>
  <path id="25" class="fil1" d="M4045.21 1694.62c6.9,0 12.99,0.58 18.26,1.68l-3.09 23.52c-5.75,-1.36 -11.4,-2.02 -16.86,-2.02 -8.21,0 -15.79,2.27 -22.85,6.81 -7,4.54 -12.51,10.77 -16.47,18.74 -3.95,7.97 -5.94,16.85 -5.94,26.56l0 82.93 -25.46 0 0 -155.33 20.92 0 2.84 28.4 1.11 0c5.95,-10.29 13,-18.06 21.11,-23.38 8.11,-5.27 16.9,-7.92 26.42,-7.92z"/>
  <path id="26" class="fil1" d="M4150.2 1834.93c15.65,0 27.05,-4.2 34.15,-12.65 7.1,-8.46 10.67,-22.03 10.67,-40.72l0 -6.08c0,-20.77 -3.57,-35.89 -10.72,-45.3 -7.2,-9.47 -18.74,-14.2 -34.68,-14.2 -13,0 -23.09,5.16 -30.19,15.51 -7.11,10.33 -10.68,25.12 -10.68,44.29 0,19.22 3.48,33.91 10.39,44.05 6.95,10.09 17.29,15.11 31.05,15.11zm44.53 16.52l0.87 -19.08 -1.16 0c-10.43,15.6 -26.47,23.37 -48.06,23.37 -20.1,0 -35.8,-7 -47.05,-21.01 -11.25,-14.06 -16.9,-33.76 -16.9,-59.26 0,-25.02 5.7,-44.78 17.05,-59.22 11.36,-14.44 26.9,-21.64 46.61,-21.64 21.01,0 37.24,7.82 48.64,23.51l1.54 0 3.43 -20.62 20.24 0 0 157.84c0,22.26 -5.65,38.97 -16.9,50.22 -11.31,11.21 -28.78,16.81 -52.55,16.81 -22.65,0 -41.25,-3.29 -55.88,-9.9l0 -23.47c15.07,8.11 34.19,12.13 57.29,12.17 13.18,-0.04 23.62,-3.86 31.34,-11.59 7.68,-7.72 11.5,-18.4 11.5,-32.07l0 -6.08z"/>
  <path id="27" class="fil1" d="M4365.27 1852.85l-4.97 -22.08 -1.11 0c-7.73,9.77 -15.45,16.33 -23.13,19.81 -7.68,3.43 -17.39,5.16 -29.08,5.16 -15.26,0 -27.24,-4 -35.94,-12.02 -8.69,-8.02 -13.03,-19.31 -13.03,-33.96 0,-31.48 24.87,-48 74.57,-49.5l26.32 -1.02 0 -9.22c0,-11.84 -2.56,-20.53 -7.63,-26.17 -5.07,-5.61 -13.24,-8.41 -24.48,-8.41 -8.21,0 -15.95,1.21 -23.29,3.68 -7.29,2.45 -14.15,5.16 -20.57,8.2l-7.78 -19.12c7.82,-4.16 16.38,-7.39 25.6,-9.77 9.27,-2.36 18.4,-3.52 27.44,-3.52 18.79,0 32.75,4.16 41.93,12.47 9.13,8.31 13.72,21.49 13.72,39.6l0 105.87 -18.55 0zm-52.5 -17.63c14.25,0 25.46,-3.81 33.62,-11.54 8.16,-7.68 12.22,-18.6 12.22,-32.75l0 -14.01 -22.89 1.02c-17.83,0.63 -30.87,3.47 -38.98,8.45 -8.16,5.02 -12.27,12.9 -12.27,23.67 0,8.11 2.46,14.34 7.43,18.64 4.93,4.34 11.93,6.52 20.87,6.52z"/>
  <path id="28" class="fil1" d="M4537.7 1852.85l0 -99.35c0,-12.66 -2.8,-22.08 -8.41,-28.26 -5.6,-6.18 -14.39,-9.27 -26.37,-9.27 -15.94,0 -27.53,4.45 -34.73,13.24 -7.2,8.83 -10.81,23.18 -10.81,43.13l0 80.51 -25.46 0 0 -155.33 20.48 0 3.87 21.15 1.4 0c4.79,-7.63 11.54,-13.57 20.24,-17.77 8.65,-4.2 18.21,-6.27 28.69,-6.27 19.08,0 33.23,4.63 42.45,13.86 9.23,9.27 13.86,23.62 13.86,43.18l0 101.18 -25.21 0z"/>
  <path id="29" class="fil1" d="M4636.53 1852.85l-25.46 0 0 -155.33 25.46 0 0 155.33zm-27.44 -197.45c0,-5.65 1.45,-9.75 4.34,-12.31 2.85,-2.56 6.43,-3.82 10.68,-3.82 3.96,0 7.43,1.26 10.38,3.82 3,2.56 4.5,6.66 4.5,12.31 0,5.56 -1.5,9.66 -4.5,12.32 -2.95,2.66 -6.42,3.96 -10.38,3.96 -4.25,0 -7.82,-1.3 -10.68,-3.96 -2.9,-2.66 -4.34,-6.77 -4.34,-12.32z"/>
  <path id="30" class="fil1" d="M4786.93 1810.01c0,14.54 -5.4,25.79 -16.22,33.76 -10.86,7.97 -26.08,11.97 -45.74,11.97 -20.43,0 -36.71,-3.23 -48.78,-9.75l0 -23.23c17.05,8.31 33.52,12.46 49.36,12.46 12.85,0 22.17,-2.07 28.01,-6.23 5.84,-4.15 8.79,-9.7 8.79,-16.71 0,-6.13 -2.8,-11.31 -8.45,-15.56 -5.61,-4.25 -15.56,-9.13 -29.9,-14.58 -14.63,-5.7 -24.92,-10.54 -30.86,-14.54 -5.95,-4 -10.29,-8.5 -13.09,-13.52 -2.75,-4.97 -4.15,-11.06 -4.15,-18.26 0,-12.75 5.16,-22.8 15.55,-30.14 10.38,-7.39 24.63,-11.06 42.75,-11.06 17.63,0 34.14,3.47 49.5,10.47l-8.65 20.24c-15.74,-6.61 -29.94,-9.9 -42.55,-9.9 -10.58,0 -18.6,1.64 -24.05,5.02 -5.5,3.34 -8.21,7.97 -8.21,13.81 0,5.66 2.32,10.34 7.05,14.06 4.73,3.77 15.7,8.93 32.99,15.51 12.89,4.84 22.46,9.32 28.64,13.47 6.18,4.16 10.72,8.84 13.67,14.02 2.9,5.22 4.34,11.44 4.34,18.69z"/>
  <path id="31" class="fil1" d="M4920.52 1852.85l-4.97 -22.08 -1.11 0c-7.73,9.77 -15.45,16.33 -23.13,19.81 -7.68,3.43 -17.39,5.16 -29.08,5.16 -15.26,0 -27.24,-4 -35.94,-12.02 -8.69,-8.02 -13.03,-19.31 -13.03,-33.96 0,-31.48 24.87,-48 74.57,-49.5l26.32 -1.02 0 -9.22c0,-11.84 -2.56,-20.53 -7.63,-26.17 -5.07,-5.61 -13.24,-8.41 -24.48,-8.41 -8.21,0 -15.95,1.21 -23.29,3.68 -7.29,2.45 -14.15,5.16 -20.57,8.2l-7.78 -19.12c7.82,-4.16 16.38,-7.39 25.6,-9.77 9.27,-2.36 18.4,-3.52 27.44,-3.52 18.79,0 32.75,4.16 41.93,12.47 9.13,8.31 13.72,21.49 13.72,39.6l0 105.87 -18.55 0zm-52.5 -17.63c14.25,0 25.46,-3.81 33.62,-11.54 8.16,-7.68 12.22,-18.6 12.22,-32.75l0 -14.01 -22.89 1.02c-17.83,0.63 -30.87,3.47 -38.98,8.45 -8.16,5.02 -12.27,12.9 -12.27,23.67 0,8.11 2.46,14.34 7.43,18.64 4.93,4.34 11.93,6.52 20.87,6.52z"/>
  <path id="32" class="fil1" d="M5088.31 1810.01c0,14.54 -5.4,25.79 -16.22,33.76 -10.86,7.97 -26.08,11.97 -45.74,11.97 -20.43,0 -36.71,-3.23 -48.78,-9.75l0 -23.23c17.05,8.31 33.52,12.46 49.36,12.46 12.85,0 22.17,-2.07 28.01,-6.23 5.84,-4.15 8.79,-9.7 8.79,-16.71 0,-6.13 -2.8,-11.31 -8.45,-15.56 -5.61,-4.25 -15.56,-9.13 -29.9,-14.58 -14.63,-5.7 -24.92,-10.54 -30.86,-14.54 -5.95,-4 -10.29,-8.5 -13.09,-13.52 -2.75,-4.97 -4.15,-11.06 -4.15,-18.26 0,-12.75 5.16,-22.8 15.55,-30.14 10.38,-7.39 24.63,-11.06 42.75,-11.06 17.63,0 34.14,3.47 49.5,10.47l-8.65 20.24c-15.74,-6.61 -29.94,-9.9 -42.55,-9.9 -10.58,0 -18.6,1.64 -24.05,5.02 -5.5,3.34 -8.21,7.97 -8.21,13.81 0,5.66 2.32,10.34 7.05,14.06 4.73,3.77 15.7,8.93 32.99,15.51 12.89,4.84 22.46,9.32 28.64,13.47 6.18,4.16 10.72,8.84 13.67,14.02 2.9,5.22 4.34,11.44 4.34,18.69z"/>
  <path id="33" class="fil1" d="M5151.44 1852.85l-25.46 0 0 -155.33 25.46 0 0 155.33zm-27.44 -197.45c0,-5.65 1.45,-9.75 4.34,-12.31 2.85,-2.56 6.43,-3.82 10.68,-3.82 3.96,0 7.43,1.26 10.38,3.82 3,2.56 4.5,6.66 4.5,12.31 0,5.56 -1.5,9.66 -4.5,12.32 -2.95,2.66 -6.42,3.96 -10.38,3.96 -4.25,0 -7.82,-1.3 -10.68,-3.96 -2.9,-2.66 -4.34,-6.77 -4.34,-12.32z"/>
  <polygon id="34" class="fil1" points="2566.92,2247.5 2536.2,2247.5 2462.78,2148.73 2441.73,2167.27 2441.73,2247.5 2415.69,2247.5 2415.69,2040.58 2441.73,2040.58 2441.73,2142.64 2459.55,2122.93 2533.26,2040.58 2563.68,2040.58 2481.77,2130.76 "/>
  <path id="35" class="fil1" d="M2657.67 2250.4c-23.28,0 -41.58,-7.05 -54.81,-21.15 -13.29,-14.1 -19.9,-33.57 -19.9,-58.29 0,-24.92 6.18,-44.73 18.54,-59.5 12.36,-14.79 29.03,-22.17 50.09,-22.17 19.51,0 35.11,6.27 46.7,18.88 11.59,12.61 17.39,29.65 17.39,51.15l0 15.41 -106.41 0c0.48,17.67 4.98,31.1 13.43,40.27 8.5,9.18 20.53,13.77 36.08,13.77 8.31,0 16.17,-0.73 23.66,-2.22 7.44,-1.46 16.18,-4.3 26.18,-8.55l0 22.36c-8.59,3.67 -16.67,6.27 -24.2,7.77 -7.58,1.5 -16.47,2.27 -26.76,2.27zm-6.37 -140.31c-12.18,0 -21.79,3.91 -28.88,11.74 -7.05,7.82 -11.25,18.69 -12.56,32.65l79.11 0c-0.18,-14.54 -3.57,-25.56 -10.04,-33.08 -6.52,-7.54 -15.74,-11.31 -27.62,-11.31z"/>
  <path id="36" class="fil1" d="M2952.68 2247.5l0 -100.08c0,-24.53 -10.47,-36.8 -31.53,-36.8 -14.45,0 -25.02,4.2 -31.83,12.6 -6.81,8.41 -10.19,21.26 -10.19,38.5l0 85.78 -25.31 0 0 -100.08c0,-12.27 -2.61,-21.44 -7.73,-27.58 -5.16,-6.13 -13.18,-9.22 -24.15,-9.22 -14.29,0 -24.82,4.39 -31.44,13.18 -6.66,8.79 -9.99,23.19 -9.99,43.18l0 80.51 -25.46 0 0 -155.33 20.53 0 3.82 21.15 1.4 0c4.45,-7.54 10.67,-13.42 18.74,-17.67 8.06,-4.25 17.1,-6.38 27.1,-6.38 24.34,0 40.18,8.69 47.52,26.03l1.45 0c4.98,-8.31 11.79,-14.74 20.43,-19.22 8.65,-4.54 18.4,-6.81 29.37,-6.81 17.53,0 30.67,4.54 39.41,13.57 8.7,9.08 13.09,23.57 13.09,43.47l0 101.18 -25.22 0z"/>
  <path id="37" class="fil1" d="M3121.92 2247.5l-4.97 -22.08 -1.11 0c-7.73,9.77 -15.45,16.33 -23.13,19.81 -7.68,3.43 -17.39,5.16 -29.08,5.16 -15.26,0 -27.24,-4 -35.94,-12.02 -8.69,-8.02 -13.03,-19.31 -13.03,-33.96 0,-31.48 24.87,-48 74.57,-49.5l26.32 -1.02 0 -9.22c0,-11.84 -2.56,-20.53 -7.63,-26.17 -5.07,-5.61 -13.24,-8.41 -24.48,-8.41 -8.21,0 -15.95,1.21 -23.29,3.68 -7.29,2.45 -14.15,5.16 -20.57,8.2l-7.78 -19.12c7.82,-4.16 16.38,-7.39 25.6,-9.77 9.27,-2.36 18.4,-3.52 27.44,-3.52 18.79,0 32.75,4.16 41.93,12.47 9.13,8.31 13.72,21.49 13.72,39.6l0 105.87 -18.55 0zm-52.5 -17.63c14.25,0 25.46,-3.81 33.62,-11.54 8.16,-7.68 12.22,-18.6 12.22,-32.75l0 -14.01 -22.89 1.02c-17.83,0.63 -30.87,3.47 -38.98,8.45 -8.16,5.02 -12.27,12.9 -12.27,23.67 0,8.11 2.46,14.34 7.43,18.64 4.93,4.34 11.93,6.52 20.87,6.52z"/>
  <path id="38" class="fil1" d="M3289.71 2204.66c0,14.54 -5.4,25.79 -16.22,33.76 -10.86,7.97 -26.08,11.97 -45.74,11.97 -20.43,0 -36.71,-3.23 -48.78,-9.75l0 -23.23c17.05,8.31 33.52,12.46 49.36,12.46 12.85,0 22.17,-2.07 28.01,-6.23 5.84,-4.15 8.79,-9.7 8.79,-16.71 0,-6.13 -2.8,-11.31 -8.45,-15.56 -5.61,-4.25 -15.56,-9.13 -29.9,-14.58 -14.63,-5.7 -24.92,-10.54 -30.86,-14.54 -5.95,-4 -10.29,-8.5 -13.09,-13.52 -2.75,-4.97 -4.15,-11.06 -4.15,-18.26 0,-12.75 5.16,-22.8 15.55,-30.14 10.38,-7.39 24.63,-11.06 42.75,-11.06 17.63,0 34.14,3.47 49.5,10.47l-8.65 20.24c-15.74,-6.61 -29.94,-9.9 -42.55,-9.9 -10.58,0 -18.6,1.64 -24.05,5.02 -5.5,3.34 -8.21,7.97 -8.21,13.81 0,5.66 2.32,10.34 7.05,14.06 4.73,3.77 15.7,8.93 32.99,15.51 12.89,4.84 22.46,9.32 28.64,13.47 6.18,4.16 10.72,8.84 13.67,14.02 2.9,5.22 4.34,11.44 4.34,18.69z"/>
  <path id="39" class="fil1" d="M3303.04 2092.17l27.33 0 33.53 88.43c7.1,19.22 11.45,33.33 13.04,42.32l1.11 0c0.87,-3.53 2.8,-10.05 5.79,-19.61 3.05,-9.56 5.61,-17.24 7.68,-22.99l31.54 -88.14 27.48 0 -66.94 176.77c-6.52,17.2 -14.25,29.47 -23.24,36.96 -8.97,7.43 -20.04,11.15 -33.27,11.15 -7.05,0 -14.11,-0.82 -21.11,-2.41l0 -20.24c4.73,1.16 10.38,1.69 17,1.69 8.11,0 15.02,-2.22 20.67,-6.72 5.65,-4.45 10.29,-11.35 13.86,-20.67l8.06 -20.63 -62.54 -155.9z"/>
  <path id="40" class="fil1" d="M3571.06 2247.5l-4.97 -22.08 -1.11 0c-7.73,9.77 -15.45,16.33 -23.13,19.81 -7.68,3.43 -17.39,5.16 -29.08,5.16 -15.26,0 -27.24,-4 -35.94,-12.02 -8.69,-8.02 -13.03,-19.31 -13.03,-33.96 0,-31.48 24.87,-48 74.57,-49.5l26.32 -1.02 0 -9.22c0,-11.84 -2.56,-20.53 -7.63,-26.17 -5.07,-5.61 -13.24,-8.41 -24.48,-8.41 -8.21,0 -15.95,1.21 -23.29,3.68 -7.29,2.45 -14.15,5.16 -20.57,8.2l-7.78 -19.12c7.82,-4.16 16.38,-7.39 25.6,-9.77 9.27,-2.36 18.4,-3.52 27.44,-3.52 18.79,0 32.75,4.16 41.93,12.47 9.13,8.31 13.72,21.49 13.72,39.6l0 105.87 -18.55 0zm-52.5 -17.63c14.25,0 25.46,-3.81 33.62,-11.54 8.16,-7.68 12.22,-18.6 12.22,-32.75l0 -14.01 -22.89 1.02c-17.83,0.63 -30.87,3.47 -38.98,8.45 -8.16,5.02 -12.27,12.9 -12.27,23.67 0,8.11 2.46,14.34 7.43,18.64 4.93,4.34 11.93,6.52 20.87,6.52z"/>
  <path id="41" class="fil1" d="M3710.12 2089.27c6.9,0 12.99,0.58 18.26,1.68l-3.09 23.52c-5.75,-1.36 -11.4,-2.02 -16.86,-2.02 -8.21,0 -15.79,2.27 -22.85,6.81 -7,4.54 -12.51,10.77 -16.47,18.74 -3.95,7.97 -5.94,16.85 -5.94,26.56l0 82.93 -25.46 0 0 -155.33 20.92 0 2.84 28.4 1.11 0c5.95,-10.29 13,-18.06 21.11,-23.38 8.11,-5.27 16.9,-7.92 26.42,-7.92z"/>
  <path id="42" class="fil1" d="M3850.52 2247.5l-4.97 -22.08 -1.11 0c-7.73,9.77 -15.45,16.33 -23.13,19.81 -7.68,3.43 -17.39,5.16 -29.08,5.16 -15.26,0 -27.24,-4 -35.94,-12.02 -8.69,-8.02 -13.03,-19.31 -13.03,-33.96 0,-31.48 24.87,-48 74.57,-49.5l26.32 -1.02 0 -9.22c0,-11.84 -2.56,-20.53 -7.63,-26.17 -5.07,-5.61 -13.24,-8.41 -24.48,-8.41 -8.21,0 -15.95,1.21 -23.29,3.68 -7.29,2.45 -14.15,5.16 -20.57,8.2l-7.78 -19.12c7.82,-4.16 16.38,-7.39 25.6,-9.77 9.27,-2.36 18.4,-3.52 27.44,-3.52 18.79,0 32.75,4.16 41.93,12.47 9.13,8.31 13.72,21.49 13.72,39.6l0 105.87 -18.55 0zm-52.5 -17.63c14.25,0 25.46,-3.81 33.62,-11.54 8.16,-7.68 12.22,-18.6 12.22,-32.75l0 -14.01 -22.89 1.02c-17.83,0.63 -30.87,3.47 -38.98,8.45 -8.16,5.02 -12.27,12.9 -12.27,23.67 0,8.11 2.46,14.34 7.43,18.64 4.93,4.34 11.93,6.52 20.87,6.52z"/>
  <polygon id="43" class="fil1" points="3942.34,2167.56 3950.98,2156.55 3960.89,2144.67 4010.54,2092.17 4040.25,2092.17 3977.4,2158.53 4044.59,2247.5 4013.92,2247.5 3960.02,2175.05 3942.34,2190.51 3942.34,2247.5 3917.18,2247.5 3917.18,2027.25 3942.34,2027.25 3942.34,2142.35 3941.23,2167.56 "/>
  <path id="44" class="fil1" d="M4167.89 2247.5l-4.97 -22.08 -1.11 0c-7.73,9.77 -15.45,16.33 -23.13,19.81 -7.68,3.43 -17.39,5.16 -29.08,5.16 -15.26,0 -27.24,-4 -35.94,-12.02 -8.69,-8.02 -13.03,-19.31 -13.03,-33.96 0,-31.48 24.87,-48 74.57,-49.5l26.32 -1.02 0 -9.22c0,-11.84 -2.56,-20.53 -7.63,-26.17 -5.07,-5.61 -13.24,-8.41 -24.48,-8.41 -8.21,0 -15.95,1.21 -23.29,3.68 -7.29,2.45 -14.15,5.16 -20.57,8.2l-7.78 -19.12c7.82,-4.16 16.38,-7.39 25.6,-9.77 9.27,-2.36 18.4,-3.52 27.44,-3.52 18.79,0 32.75,4.16 41.93,12.47 9.13,8.31 13.72,21.49 13.72,39.6l0 105.87 -18.55 0zm-52.5 -17.63c14.25,0 25.46,-3.81 33.62,-11.54 8.16,-7.68 12.22,-18.6 12.22,-32.75l0 -14.01 -22.89 1.02c-17.83,0.63 -30.87,3.47 -38.98,8.45 -8.16,5.02 -12.27,12.9 -12.27,23.67 0,8.11 2.46,14.34 7.43,18.64 4.93,4.34 11.93,6.52 20.87,6.52z"/>
  <path id="45" class="fil1" d="M4286.52 2229.58c3.29,0 7.15,-0.34 11.59,-0.97 4.45,-0.68 7.77,-1.41 10.04,-2.27l0 19.51c-2.36,1.07 -5.99,2.07 -10.96,3.04 -4.98,1.02 -10,1.5 -15.07,1.5 -30.38,0 -45.59,-15.99 -45.59,-47.96l0 -90.45 -21.93 0 0 -12.18 22.22 -10.19 10.19 -33.08 15.13 0 0 35.64 44.91 0 0 19.81 -44.91 0 0 89.73c0,8.98 2.17,15.84 6.47,20.67 4.3,4.79 10.24,7.2 17.92,7.2z"/>
  <path id="46" class="fil1" d="M4435.03 2247.5l-4.97 -22.08 -1.11 0c-7.73,9.77 -15.45,16.33 -23.13,19.81 -7.68,3.43 -17.39,5.16 -29.08,5.16 -15.26,0 -27.24,-4 -35.94,-12.02 -8.69,-8.02 -13.03,-19.31 -13.03,-33.96 0,-31.48 24.87,-48 74.57,-49.5l26.32 -1.02 0 -9.22c0,-11.84 -2.56,-20.53 -7.63,-26.17 -5.07,-5.61 -13.24,-8.41 -24.48,-8.41 -8.21,0 -15.95,1.21 -23.29,3.68 -7.29,2.45 -14.15,5.16 -20.57,8.2l-7.78 -19.12c7.82,-4.16 16.38,-7.39 25.6,-9.77 9.27,-2.36 18.4,-3.52 27.44,-3.52 18.79,0 32.75,4.16 41.93,12.47 9.13,8.31 13.72,21.49 13.72,39.6l0 105.87 -18.55 0zm-52.5 -17.63c14.25,0 25.46,-3.81 33.62,-11.54 8.16,-7.68 12.22,-18.6 12.22,-32.75l0 -14.01 -22.89 1.02c-17.83,0.63 -30.87,3.47 -38.98,8.45 -8.16,5.02 -12.27,12.9 -12.27,23.67 0,8.11 2.46,14.34 7.43,18.64 4.93,4.34 11.93,6.52 20.87,6.52z"/>
  <path id="47" class="fil1" d="M4607.47 2247.5l0 -99.35c0,-12.66 -2.8,-22.08 -8.41,-28.26 -5.6,-6.18 -14.39,-9.27 -26.37,-9.27 -15.94,0 -27.53,4.45 -34.73,13.24 -7.2,8.83 -10.81,23.18 -10.81,43.13l0 80.51 -25.46 0 0 -155.33 20.48 0 3.87 21.15 1.4 0c4.79,-7.63 11.54,-13.57 20.24,-17.77 8.65,-4.2 18.21,-6.27 28.69,-6.27 19.08,0 33.23,4.63 42.45,13.86 9.23,9.27 13.86,23.62 13.86,43.18l0 101.18 -25.21 0z"/>
  <g id="_2530021739776">
   <path class="fil2" d="M2048.57 1572.43l0 294.3c0,22.78 -18.46,41.24 -41.22,41.24l-718.02 0 0 -335.54c0,-99.4 80.59,-180 180,-180l399.23 0c99.42,0 180,80.61 180,180zm0 0z"/>
   <path class="fil3" d="M1573.69 1579.81l0 328.16 -284.36 0 0 -335.54c0,-99.42 80.59,-180 180,-180l34.44 0c43.58,50.29 69.92,115.83 69.92,187.39zm0 0z"/>
   <path class="fil4" d="M1673.24 1493.78c-33.88,0 -61.35,-27.48 -61.35,-61.36l0 -172.12 122.72 0 0 172.12c0,33.89 -27.48,61.36 -61.36,61.36zm0 0z"/>
   <path class="fil5" d="M1348.62 1020.26l649.25 0 17.13 -83.52c44.36,-216.34 -120.92,-418.91 -341.75,-418.91 -220.82,0 -386.09,202.56 -341.73,418.91l17.11 83.52zm0 0z"/>
   <path class="fil4" d="M2034.08 1052.94c0,45.63 -36.98,82.62 -82.62,82.62 -45.62,0 -82.6,-36.99 -82.6,-82.62 0,-45.62 36.98,-82.6 82.6,-82.6 45.64,0 82.62,36.98 82.62,82.6zm0 0z"/>
   <path class="fil4" d="M1477.63 1052.95c0,45.62 -36.97,82.62 -82.62,82.62 -45.62,0 -82.62,-37 -82.62,-82.62 0,-6.96 0.85,-13.77 2.54,-20.24 9.01,-35.81 41.43,-62.37 80.08,-62.37 39.15,0 71.93,27.24 80.43,63.78 1.42,6.04 2.19,12.36 2.19,18.83zm0 0z"/>
   <path class="fil6" d="M1475.44 1034.12c-23.32,13.4 -50.31,21.03 -79.09,21.03 -29.73,0 -57.56,-8.19 -81.43,-22.44 9,-35.81 41.43,-62.37 80.08,-62.37 39.15,0 71.93,27.24 80.43,63.78l0 0zm0 0z"/>
   <path class="fil7" d="M1413.24 821.88l28.32 226.73 10.74 86c13.92,111.42 108.67,195.06 220.93,195.06 112.31,0 207.05,-83.64 220.95,-195.06l39.05 -312.73 -520 0zm0 0z"/>
   <path class="fil4" d="M1555.86 895.66c0,72.27 -48.32,133.43 -114.3,152.95l-30.36 -243.05 116.75 0c17.61,25.68 27.91,56.69 27.91,90.1zm0 0z"/>
   <path class="fil5" d="M1552.3 1079.14c-16.69,0 -30.43,-13.3 -30.88,-30.08l-0.36 -13.09c-0.47,-17.07 12.99,-31.28 30.06,-31.74 17.08,-0.53 31.28,12.98 31.74,30.06l0.36 13.09c0.47,17.07 -12.99,31.28 -30.06,31.74 -0.3,0 -0.58,0.02 -0.86,0.02l0 0zm0 0z"/>
   <path class="fil5" d="M1794.53 1079.14c-16.7,0 -30.44,-13.3 -30.9,-30.08l-0.36 -13.09c-0.47,-17.07 12.98,-31.28 30.07,-31.74 17.09,-0.53 31.28,12.98 31.74,30.06l0.37 13.09c0.46,17.07 -12.99,31.28 -30.07,31.74 -0.29,0 -0.58,0.02 -0.85,0.02l0 0zm0 0z"/>
   <path class="fil8" d="M1435.94 1938.86c-17.08,0 -30.91,-13.83 -30.91,-30.9l0 -281.02c0,-17.07 13.83,-30.91 30.91,-30.91 17.08,0 30.91,13.84 30.91,30.91l0 281.02c0.01,17.07 -13.83,30.9 -30.91,30.9zm0 0z"/>
   <path class="fil3" d="M1932.84 1626.93l0 281.03 -61.84 0 0 -281.03c0,-17.07 13.85,-30.92 30.92,-30.92 17.1,0 30.92,13.85 30.92,30.92l0 0zm0 0z"/>
   <path class="fil5" d="M1364.65 828.3c0,0 55.44,54.99 204.71,58.97 9.44,0.25 17.18,-7.35 17.18,-16.79l0 -22.15c0,0 54.28,35.61 169.29,38.92 9.44,0.27 17.18,-7.34 17.18,-16.79l0 -12.56c0,0 44.73,27.3 178.78,29.46 9.36,0.14 17.02,-7.44 17.02,-16.79l0 -81.51c0,-10.67 -8.66,-19.31 -19.32,-19.31l-526.3 0c-32.33,0 -58.54,26.22 -58.54,58.55l0 0zm0 0z"/>
   <path class="fil5" d="M1569.64 918.18c-0.42,0 -0.84,-0.01 -1.26,-0.01 -97.23,-2.61 -158.45,-25.84 -192.67,-44.86 -14.93,-8.3 -20.29,-27.11 -12,-42.04 8.3,-14.92 27.12,-20.29 42.04,-12 21.81,12.12 69.45,32.3 149.89,36.52l0 -7.45c0,-11.36 6.23,-21.82 16.24,-27.21 9.98,-5.4 22.14,-4.88 31.63,1.37 0.26,0.15 45.43,28 138.68,33.24 0.67,-10.58 6.32,-20.39 15.72,-25.42 9.97,-5.33 21.52,-5.13 30.96,1.03 3.69,1.89 44.9,21.79 151.5,24.85 17.07,0.49 30.51,14.71 30.02,31.79 -0.5,17.06 -14.76,30.48 -31.79,30.01 -69.85,-2 -115.85,-10.82 -144.15,-18.98 -1.5,1.98 -3.16,3.87 -4.97,5.64 -9.21,8.94 -21.87,13.84 -34.7,13.49 -65.04,-1.88 -112.56,-13.74 -143.2,-24.66 -2.25,4.07 -5.1,7.81 -8.53,11.14 -8.89,8.67 -21,13.56 -33.4,13.56zm0 0z"/>
   <path class="fil9" d="M759.24 1572.43l0 335.54 -718.02 0c-22.75,0 -41.22,-18.46 -41.22,-41.24l0 -294.3c0,-99.4 80.59,-180 180,-180l399.24 0c99.42,0 180,80.61 180,180l-0.01 0zm0 0z"/>
   <path class="fil10" d="M759.24 1572.43l0 335.54 -284.36 0 0 -328.16c0,-71.56 26.34,-137.09 69.92,-187.39l34.45 0c99.42,0 180,80.59 180,180l-0.01 0zm0 0z"/>
   <path class="fil4" d="M383.95 1493.78c-33.9,0 -61.36,-27.48 -61.36,-61.36l0 -172.12 122.73 0 0 172.12c0,33.89 -27.48,61.36 -61.36,61.36zm0 0z"/>
   <path class="fil5" d="M59.32 1020.26l649.26 0 17.13 -83.52c44.34,-216.34 -120.92,-418.91 -341.75,-418.91 -220.83,0 -386.09,202.56 -341.75,418.91l17.12 83.52zm0 0z"/>
   <path class="fil4" d="M744.78 1052.95c0,45.62 -36.99,82.62 -82.61,82.62 -45.61,0 -82.62,-37 -82.62,-82.62 0,-6.96 0.84,-13.77 2.53,-20.24 9.01,-35.81 41.44,-62.37 80.09,-62.37 39.15,0 71.97,27.24 80.42,63.81 1.44,6.05 2.19,12.33 2.19,18.8zm0 0z"/>
   <path class="fil6" d="M742.59 1034.15c-23.32,13.35 -50.3,21 -79.04,21 -29.73,0 -57.61,-8.19 -81.47,-22.44 9,-35.81 41.43,-62.37 80.08,-62.37 39.16,0 71.97,27.24 80.42,63.81l0 0zm0 0z"/>
   <path class="fil4" d="M188.33 1052.94c0,45.63 -36.98,82.62 -82.6,82.62 -45.63,0 -82.62,-36.99 -82.62,-82.62 0,-45.62 36.99,-82.6 82.62,-82.6 45.62,0 82.6,36.98 82.6,82.6zm0 0z"/>
   <path class="fil7" d="M123.94 821.88l39.06 312.73c13.94,111.42 108.64,195.06 220.95,195.06 112.31,0 207.01,-83.64 220.95,-195.06l10.84 -86.76 28.21 -225.97 -520.02 0zm0 0z"/>
   <path class="fil4" d="M522.24 821.88c-11.57,22.1 -18.15,47.17 -18.15,73.79 0,71.3 47.01,131.81 111.67,152.19l28.22 -225.95 -121.73 0 0 -0.02zm0 0z"/>
   <path class="fil5" d="M262.99 1079.14c-16.68,0 -30.41,-13.3 -30.88,-30.08l-0.36 -13.09c-0.47,-17.07 12.99,-31.28 30.06,-31.74 17.15,-0.53 31.29,12.98 31.76,30.06l0.36 13.09c0.46,17.07 -12.99,31.28 -30.06,31.74 -0.3,0 -0.59,0.02 -0.88,0.02l0 0zm0 0z"/>
   <path class="fil5" d="M505.22 1079.14c-16.68,0 -30.44,-13.3 -30.89,-30.08l-0.36 -13.09c-0.46,-17.07 12.99,-31.28 30.06,-31.74 17.15,-0.53 31.28,12.98 31.75,30.06l0.36 13.09c0.46,17.07 -12.98,31.28 -30.06,31.74 -0.29,0 -0.59,0.02 -0.86,0.02l0 0zm0 0z"/>
   <path class="fil10" d="M177.57 1626.93l0 281.03 -61.82 0 0 -281.03c0,-17.07 13.8,-30.92 30.9,-30.92 17.07,0 30.92,13.85 30.92,30.92zm0 0z"/>
   <path class="fil8" d="M612.63 1938.86c-17.07,0 -30.9,-13.83 -30.9,-30.9l0 -281.02c0,-17.07 13.83,-30.91 30.9,-30.91 17.08,0 30.91,13.84 30.91,30.91l0 281.02c0,17.07 -13.83,30.9 -30.91,30.9zm0 0z"/>
   <path class="fil5" d="M75.34 828.3c0,0 55.44,54.99 204.71,58.97 9.44,0.25 17.19,-7.35 17.19,-16.79l0 -22.15c0,0 54.28,35.61 169.28,38.92 9.46,0.27 17.19,-7.34 17.19,-16.79l0 -12.56c0,0 44.73,27.3 178.78,29.46 9.35,0.14 17.01,-7.44 17.01,-16.79l0 -81.51c0,-10.67 -8.65,-19.31 -19.3,-19.31l-526.3 0c-32.33,0 -58.56,26.22 -58.56,58.55l0 0zm0 0z"/>
   <path class="fil5" d="M662.41 918.27c-0.17,0 -0.33,0 -0.5,0 -76.99,-1.23 -126.8,-10.61 -156.78,-19.24 -1.49,1.99 -3.14,3.86 -4.96,5.63 -9.2,8.94 -21.86,13.85 -34.7,13.49 -65.03,-1.88 -112.57,-13.74 -143.19,-24.66 -2.25,4.07 -5.11,7.81 -8.55,11.16 -9.19,8.93 -21.85,13.9 -34.65,13.53 -86.57,-2.33 -144.02,-21.32 -176.98,-36.84 -15.46,-7.28 -22.09,-25.69 -14.81,-41.15 7.27,-15.44 25.7,-22.06 41.13,-14.79 25.82,12.16 70.21,26.86 137.9,30.39l0 -7.45c0,-11.36 6.23,-21.82 16.23,-27.21 9.99,-5.4 22.15,-4.88 31.64,1.37 0.27,0.15 45.44,28 138.67,33.24 0.68,-10.58 6.32,-20.39 15.73,-25.42 9.97,-5.33 21.52,-5.13 30.94,1.03 3.83,1.97 47.95,23.25 163.36,25.12 17.07,0.27 30.68,14.33 30.41,31.42 -0.28,16.89 -14.07,30.39 -30.91,30.39l0 0zm0 0z"/>
   <path class="fil11" d="M1524.22 1579.81l0 400.61c0,22.75 -18.44,41.22 -41.22,41.22l-917.43 0c-22.78,0 -41.22,-18.46 -41.22,-41.22l0 -400.61c0,-130.95 106.12,-237.09 237.04,-237.09l525.78 0c130.92,0 237.04,106.14 237.04,237.09zm0 0z"/>
   <path class="fil12" d="M717.45 1471.01l0 63.57c0,14.76 11.96,26.71 26.72,26.71 17.78,0 30.62,17.07 25.65,34.16l-21.49 73.98c-2.33,8.03 -0.75,16.71 4.25,23.41l101.01 135.35 0 -485.47 -126.74 107.97c-5.96,5.06 -9.39,12.51 -9.39,20.32l-0.01 -0.01zm0 0z"/>
   <path class="fil12" d="M1342.48 1471.01l0 63.57c0,14.76 -11.95,26.71 -26.71,26.71 -17.81,0 -30.62,17.07 -25.65,34.16l21.48 73.98c2.34,8.03 0.76,16.71 -4.24,23.41l-101.01 135.35 0 -485.47 126.74 107.97c5.95,5.06 9.39,12.51 9.39,20.32l0 -0.01zm0 0z"/>
   <path class="fil13" d="M853.56 1342.73l352.8 0 0 678.92 -352.8 0 0 -678.92zm0 0z"/>
   <path class="fil14" d="M1524.22 1579.76l0 400.66c0,22.78 -18.44,41.22 -41.22,41.22l-39.55 0 0 -441.83c0,-130.91 -106.16,-237.09 -237.09,-237.09l80.82 0c130.91,0 237.03,106.12 237.03,237.03l0 0zm0 0z"/>
   <path class="fil7" d="M1029.97 1476.21c-44.64,0 -80.82,-36.18 -80.82,-80.8l0 -226.68 161.62 0 0 226.68c0,44.63 -36.18,80.8 -80.8,80.8zm0 0z"/>
   <path class="fil15" d="M602.45 852.61l855.01 0 22.56 -109.98c58.41,-284.89 -159.25,-551.69 -450.05,-551.69 -290.83,0 -508.47,266.79 -450.06,551.69l22.54 109.98zm0 0z"/>
   <path class="fil15" d="M1436.4 591.01c-17.07,0 -30.92,13.85 -30.92,30.92l0 66.33c-24.16,-0.42 -60.19,-2.42 -101.59,-9.19l0 62.48c44.5,6.69 82.37,8.41 106.69,8.62l0.5 0c14.92,0 28.98,-5.78 39.58,-16.31 10.74,-10.64 16.64,-24.83 16.64,-39.96l0 -71.97c0,-17.07 -13.83,-30.92 -30.91,-30.92zm0 0z"/>
   <path class="fil15" d="M628.71 591.01c17.07,0 30.9,13.85 30.9,30.92l0 66.33c24.18,-0.42 60.19,-2.42 101.61,-9.19l0 62.48c-44.49,6.69 -82.36,8.41 -106.7,8.62 -0.17,0 -0.33,0 -0.48,0 -14.94,0 -28.98,-5.78 -39.6,-16.31 -10.72,-10.64 -16.64,-24.83 -16.64,-39.96l0 -71.97c0.01,-17.07 13.84,-30.92 30.93,-30.92zm0 0z"/>
   <path class="fil7" d="M1505.17 895.66c0,60.1 -48.71,108.79 -108.81,108.79 -60.08,0 -108.79,-48.7 -108.79,-108.79 0,-60.08 48.71,-108.79 108.79,-108.79 60.1,0 108.81,48.71 108.81,108.79zm0 0z"/>
   <path class="fil7" d="M772.35 895.66c0,60.1 -48.69,108.79 -108.79,108.79 -60.08,0 -108.79,-48.7 -108.79,-108.79 0,-60.08 48.71,-108.79 108.79,-108.79 60.1,0 108.79,48.71 108.79,108.79zm0 0z"/>
   <path class="fil7" d="M705.4 734.23l33.59 268.96c18.33,146.75 143.09,256.89 290.97,256.89 147.89,0 272.63,-110.14 290.96,-256.89l33.59 -268.96c10.05,-80.39 -52.64,-151.42 -133.66,-151.42l-381.78 0c-81.02,0 -143.73,71.03 -133.67,151.42l0 0zm0 0z"/>
   <path class="fil15" d="M870.69 920.36c-16.68,0 -30.43,-13.3 -30.88,-30.07l-0.47 -17.26c-0.46,-17.07 12.99,-31.28 30.06,-31.74 16.94,-0.5 31.28,12.99 31.75,30.06l0.46 17.24c0.47,17.08 -12.99,31.29 -30.06,31.76 -0.28,0 -0.58,0.01 -0.86,0.01l0 0zm0 0z"/>
   <path class="fil15" d="M1189.68 920.36c-16.68,0 -30.44,-13.3 -30.89,-30.07l-0.46 -17.26c-0.47,-17.07 12.98,-31.28 30.06,-31.74 16.92,-0.5 31.27,12.99 31.74,30.06l0.48 17.24c0.47,17.08 -12.99,31.29 -30.06,31.76 -0.3,0 -0.6,0.01 -0.87,0.01l0 0zm0 0z"/>
   <path class="fil14" d="M748.37 1777.16l0 244.48 -61.83 0 0 -244.48c0,-17.06 13.84,-30.9 30.91,-30.9 17.08,0 30.92,13.84 30.92,30.9l0 0zm0 0z"/>
   <path class="fil14" d="M1362.04 1777.16l0 244.48 -61.84 0 0 -244.48c0,-17.06 13.85,-30.9 30.92,-30.9 17.07,0 30.92,13.84 30.92,30.9l0 0zm0 0z"/>
   <path class="fil15" d="M659.66 536.77l0 145.66c0,14.08 11.47,25.46 25.57,25.34 66.34,-0.58 226.58,-12.14 347.35,-103.28 120.79,91.14 281.01,102.7 347.36,103.28 14.1,0.11 25.56,-11.26 25.56,-25.34l0 -145.66 -745.83 0zm0 0z"/>
  </g>
 </g>
</svg>
